<svg width="63" height="28" viewBox="0 0 63 28" fill="none" xmlns="http://www.w3.org/2000/svg">
<path d="M0.9375 21V6.44922H11.4258V9.63281H4.88281V12.0938H10.8789V15.1992H4.88281V17.8164H11.3867V21H0.9375ZM19.4102 12.25V15.1992H12.5938V12.25H19.4102ZM20.6855 21V6.44922H26.9941C28.1009 6.44922 29.0319 6.59896 29.7871 6.89844C30.5423 7.19792 31.112 7.61947 31.4961 8.16309C31.8802 8.70671 32.0723 9.34635 32.0723 10.082C32.0723 10.6159 31.9551 11.1042 31.7207 11.5469C31.4863 11.9896 31.1592 12.359 30.7393 12.6553C30.3193 12.9515 29.8262 13.1549 29.2598 13.2656V13.4219C29.8848 13.4414 30.4528 13.596 30.9639 13.8857C31.4749 14.1755 31.8818 14.5758 32.1846 15.0869C32.4873 15.598 32.6387 16.1953 32.6387 16.8789C32.6387 17.6732 32.4336 18.3812 32.0234 19.0029C31.6133 19.6247 31.0273 20.113 30.2656 20.4678C29.5039 20.8226 28.5957 21 27.541 21H20.6855ZM24.6309 17.8555H26.4863C27.1439 17.8555 27.6403 17.7285 27.9756 17.4746C28.3109 17.2207 28.4785 16.8529 28.4785 16.3711C28.4785 16.026 28.4004 15.7347 28.2441 15.4971C28.0879 15.2594 27.8649 15.0788 27.5752 14.9551C27.2855 14.8314 26.9421 14.7695 26.5449 14.7695H24.6309V17.8555ZM24.6309 12.3281H26.252C26.597 12.3281 26.9014 12.2744 27.165 12.167C27.4287 12.0596 27.6354 11.9033 27.7852 11.6982C27.9349 11.4932 28.0098 11.2409 28.0098 10.9414C28.0098 10.4987 27.8486 10.1569 27.5264 9.91602C27.2041 9.67513 26.7988 9.55469 26.3105 9.55469H24.6309V12.3281ZM36.9902 6.44922V21H33.0449V6.44922H36.9902ZM40.8633 18.4512V15.1113C41.1302 14.4993 41.3906 13.9476 41.6445 13.4561C41.8984 12.9645 42.1963 12.4648 42.5381 11.957C42.8799 11.4492 43.3079 10.86 43.8223 10.1895L46.7129 6.44922H51.3906L45.3066 13.9395L44.9355 13.7832L40.8633 18.4512ZM37.8652 21V6.44922H41.8105V9.57422L41.7324 13.7637L41.8105 15.6875V21H37.8652ZM47.0156 21L43.5098 15.1504L46.0098 12.2598L51.6641 21H47.0156ZM52.0508 21V6.44922H62.5391V9.63281H55.9961V12.0938H61.9922V15.1992H55.9961V17.8164H62.5V21H52.0508Z" fill="black"/>
</svg>
